<svg width="14" height="14" viewBox="0 0 14 14" fill="none" xmlns="http://www.w3.org/2000/svg">
<path d="M9.29688 3.37989L10.62 4.70302M10.1475 2.21427L6.56813 5.79364C6.38318 5.97833 6.25705 6.21363 6.20563 6.46989L5.875 8.12489L7.53 7.79364C7.78625 7.74239 8.02125 7.61677 8.20625 7.43177L11.7856 3.85239C11.8932 3.74483 11.9785 3.61714 12.0367 3.4766C12.0949 3.33607 12.1249 3.18544 12.1249 3.03333C12.1249 2.88122 12.0949 2.73059 12.0367 2.59006C11.9785 2.44952 11.8932 2.32183 11.7856 2.21427C11.6781 2.10671 11.5504 2.02138 11.4098 1.96317C11.2693 1.90496 11.1187 1.875 10.9666 1.875C10.8144 1.875 10.6638 1.90496 10.5233 1.96317C10.3828 2.02138 10.2551 2.10671 10.1475 2.21427Z" stroke="#D9D9D9" stroke-width="1.8" stroke-linecap="round" stroke-linejoin="round"/>
<path d="M10.875 9.375V11.25C10.875 11.5815 10.7433 11.8995 10.5089 12.1339C10.2745 12.3683 9.95652 12.5 9.625 12.5H2.75C2.41848 12.5 2.10054 12.3683 1.86612 12.1339C1.6317 11.8995 1.5 11.5815 1.5 11.25V4.375C1.5 4.04348 1.6317 3.72554 1.86612 3.49112C2.10054 3.2567 2.41848 3.125 2.75 3.125H4.625" stroke="#D9D9D9" stroke-width="1.8" stroke-linecap="round" stroke-linejoin="round"/>
</svg>
