<svg width="11" height="10" viewBox="0 0 11 10" fill="none" xmlns="http://www.w3.org/2000/svg">
<path d="M8.71251 1.21261C8.8886 1.04497 9.12292 0.952289 9.36604 0.954128C9.60915 0.955968 9.84204 1.05218 10.0156 1.22246C10.1891 1.39275 10.2897 1.62379 10.2961 1.86682C10.3025 2.10986 10.2143 2.34589 10.05 2.52511L5.06251 8.76261C4.97675 8.85498 4.87324 8.92911 4.75818 8.98056C4.64311 9.03202 4.51885 9.05974 4.39283 9.06208C4.2668 9.06441 4.1416 9.04131 4.02471 8.99415C3.90782 8.94699 3.80164 8.87674 3.71251 8.78761L0.405014 5.48011C0.312905 5.39428 0.239028 5.29078 0.187788 5.17578C0.136548 5.06078 0.108995 4.93664 0.106774 4.81076C0.104553 4.68488 0.127709 4.55984 0.174861 4.44311C0.222012 4.32637 0.292193 4.22033 0.381216 4.13131C0.47024 4.04228 0.576282 3.9721 0.693017 3.92495C0.809752 3.8778 0.934789 3.85464 1.06067 3.85687C1.18655 3.85909 1.31069 3.88664 1.42569 3.93788C1.54069 3.98912 1.64419 4.063 1.73001 4.15511L4.34751 6.77136L8.68876 1.24011L8.71251 1.21261Z" fill="#D9D9D9"/>
</svg>
